<svg width="20" height="20" viewBox="0 0 20 20" fill="none" xmlns="http://www.w3.org/2000/svg">
<path d="M1.66699 6.66671H18.3337M1.66699 5.00004C1.66699 4.55801 1.84259 4.13409 2.15515 3.82153C2.46771 3.50897 2.89163 3.33337 3.33366 3.33337H16.667C17.109 3.33337 17.5329 3.50897 17.8455 3.82153C18.1581 4.13409 18.3337 4.55801 18.3337 5.00004V15C18.3337 15.4421 18.1581 15.866 17.8455 16.1786C17.5329 16.4911 17.109 16.6667 16.667 16.6667H3.33366C2.89163 16.6667 2.46771 16.4911 2.15515 16.1786C1.84259 15.866 1.66699 15.4421 1.66699 15V5.00004Z" stroke="#115D8E" stroke-width="2" stroke-linecap="round" stroke-linejoin="round"/>
<path d="M1.66699 10H7.50033C7.50033 10.8333 8.00033 12.5 10.0003 12.5C12.0003 12.5 12.5003 10.8333 12.5003 10H18.3337" stroke="#115D8E" stroke-width="2" stroke-linecap="round" stroke-linejoin="round"/>
</svg>
