<svg width="16" height="16" viewBox="0 0 16 16" fill="none" xmlns="http://www.w3.org/2000/svg">
<path d="M11 11V14H3V2H8V1H3C2.73478 1 2.48043 1.10536 2.29289 1.29289C2.10536 1.48043 2 1.73478 2 2V14C2 14.2652 2.10536 14.5196 2.29289 14.7071C2.48043 14.8946 2.73478 15 3 15H11C11.2652 15 11.5196 14.8946 11.7071 14.7071C11.8946 14.5196 12 14.2652 12 14V11H11Z" fill="#115D8E"/>
<path d="M14.77 2.87991L13.12 1.22991C12.9705 1.08332 12.7694 1.00122 12.56 1.00122C12.3506 1.00122 12.1495 1.08332 12 1.22991L5 8.22991V10.9999H7.765L14.765 3.99991C14.9116 3.85036 14.9937 3.64931 14.9937 3.43991C14.9937 3.2305 14.9116 3.02945 14.765 2.87991H14.77ZM7.35 9.99991H6V8.64991L10.72 3.92491L12.075 5.27991L7.35 9.99991ZM12.78 4.57491L11.425 3.21991L12.56 2.08491L13.915 3.43991L12.78 4.57491Z" fill="#115D8E"/>
</svg>
