<svg width="16" height="16" viewBox="0 0 16 16" fill="none" xmlns="http://www.w3.org/2000/svg">
<mask id="mask0_59_5106" style="mask-type:luminance" maskUnits="userSpaceOnUse" x="1" y="1" width="14" height="14">
<path d="M6.33333 6.66667C6.63975 6.66667 6.94317 6.60631 7.22626 6.48905C7.50935 6.37179 7.76658 6.19992 7.98325 5.98325C8.19992 5.76658 8.37179 5.50935 8.48905 5.22626C8.60631 4.94317 8.66667 4.63975 8.66667 4.33333C8.66667 4.02692 8.60631 3.7235 8.48905 3.44041C8.37179 3.15731 8.19992 2.90009 7.98325 2.68342C7.76658 2.46675 7.50935 2.29488 7.22626 2.17761C6.94317 2.06035 6.63975 2 6.33333 2C5.71449 2 5.121 2.24583 4.68342 2.68342C4.24583 3.121 4 3.71449 4 4.33333C4 4.95217 4.24583 5.54566 4.68342 5.98325C5.121 6.42083 5.71449 6.66667 6.33333 6.66667Z" fill="#115D8E" stroke="white" stroke-width="2" stroke-linejoin="round"/>
<path d="M12.3333 13.3333V9.99992M12.3333 13.3333L11 11.9999M12.3333 13.3333L13.6667 11.9999M9 9.33325H6.26667C4.77333 9.33325 4.02667 9.33325 3.456 9.62392C2.95426 9.87958 2.54633 10.2875 2.29067 10.7893C2 11.3599 2 12.1066 2 13.5999V13.9999H9" stroke="#115D8E" stroke-width="2" stroke-linecap="round" stroke-linejoin="round"/>
</mask>
<g mask="url(#mask0_59_5106)">
<path d="M0 0H16V16H0V0Z" fill="#115D8E"/>
</g>
</svg>
