<svg width="16" height="16" viewBox="0 0 16 16" fill="none" xmlns="http://www.w3.org/2000/svg">
<path d="M7.99993 1C7.30843 1 6.73443 1.4845 6.56243 2.125C6.38643 2.0525 6.20093 2 5.99993 2C5.17743 2 4.49993 2.6775 4.49993 3.5V8.875L4.06243 8.4375C3.7795 8.15787 3.39773 8.00105 2.99993 8.00105C2.60213 8.00105 2.22036 8.15787 1.93743 8.4375C1.6578 8.72043 1.50098 9.1022 1.50098 9.5C1.50098 9.8978 1.6578 10.2796 1.93743 10.5625L5.32793 13.953C5.91593 14.539 6.72843 15 7.68743 15H9.99993C11.9274 15 13.4999 13.4275 13.4999 11.5V5.5C13.4999 4.6775 12.8224 4 11.9999 4C11.8291 4.00263 11.66 4.03442 11.4999 4.094V3.5C11.4999 2.6775 10.8224 2 9.99993 2C9.79893 2 9.61343 2.0525 9.43743 2.125C9.26543 1.4845 8.69143 1 7.99993 1ZM7.99993 2C8.28293 2 8.49993 2.217 8.49993 2.5V7.5H9.49993V3.5C9.49993 3.217 9.71693 3 9.99993 3C10.2829 3 10.4999 3.217 10.4999 3.5V7.5H11.4999V5.5C11.4999 5.217 11.7169 5 11.9999 5C12.2829 5 12.4999 5.217 12.4999 5.5V11.5C12.4999 12.8865 11.3864 14 9.99993 14H7.68743C7.05093 14 6.50393 13.6895 6.04693 13.2345L2.64043 9.8595C2.59305 9.81238 2.55545 9.75637 2.5298 9.69467C2.50414 9.63298 2.49093 9.56682 2.49093 9.5C2.49093 9.43318 2.50414 9.36702 2.5298 9.30533C2.55545 9.24363 2.59305 9.18762 2.64043 9.1405C2.68755 9.09312 2.74356 9.05552 2.80526 9.02987C2.86695 9.00421 2.93311 8.991 2.99993 8.991C3.06675 8.991 3.13291 9.00421 3.1946 9.02987C3.2563 9.05552 3.31231 9.09312 3.35943 9.1405L4.64043 10.4375L5.49993 11.297V3.5C5.49993 3.217 5.71693 3 5.99993 3C6.28293 3 6.49993 3.217 6.49993 3.5V7.5H7.49993V2.5C7.49993 2.217 7.71693 2 7.99993 2Z" fill="#115D8E"/>
</svg>
