<svg width="32" height="32" viewBox="0 0 32 32" fill="none" xmlns="http://www.w3.org/2000/svg">
<path d="M16.3004 16.667L19.3337 14.8337L22.3671 16.667L21.5671 13.2003L24.2337 10.9003L20.7337 10.6003L19.3337 7.33366L17.9337 10.6003L14.4337 10.9003L17.1004 13.2003L16.3004 16.667ZM16.9337 25.3337H24.4004C24.2449 25.9114 23.9782 26.3781 23.6004 26.7337C23.2226 27.0892 22.7337 27.3114 22.1337 27.4003L7.60041 29.167C6.86708 29.2781 6.20575 29.1061 5.61641 28.651C5.02708 28.1959 4.68841 27.6012 4.60041 26.867L2.83375 12.3003C2.74486 11.567 2.92263 10.9114 3.36708 10.3337C3.81152 9.75588 4.40041 9.42255 5.13375 9.33366L6.66708 9.13366V11.8003L5.46708 11.967L7.26708 26.5337L16.9337 25.3337ZM12.0004 22.667C11.2671 22.667 10.6395 22.4061 10.1177 21.8843C9.59597 21.3625 9.33464 20.7345 9.33375 20.0003V5.33366C9.33375 4.60033 9.59508 3.97277 10.1177 3.45099C10.6404 2.92921 11.268 2.66788 12.0004 2.66699H26.6671C27.4004 2.66699 28.0284 2.92833 28.5511 3.45099C29.0737 3.97366 29.3346 4.60121 29.3337 5.33366V20.0003C29.3337 20.7337 29.0729 21.3617 28.5511 21.8843C28.0293 22.407 27.4013 22.6679 26.6671 22.667H12.0004ZM12.0004 20.0003H26.6671V5.33366H12.0004V20.0003Z" fill="#A526C7"/>
</svg>
