<svg width="36" height="36" viewBox="0 0 36 36" fill="none" xmlns="http://www.w3.org/2000/svg">
<path d="M6.9373 33C6.5373 33 6.1748 32.8375 5.8498 32.5125C5.5248 32.1875 5.3623 31.825 5.3623 31.425V27.4875C5.3623 25.2375 6.0623 23.25 7.4623 21.525C8.8623 19.8 10.6623 18.7 12.8623 18.225C11.8623 18.925 11.0873 19.806 10.5373 20.868C9.9873 21.93 9.7123 23.074 9.7123 24.3V31.425C9.7123 31.7 9.7498 31.975 9.8248 32.25C9.89981 32.525 10.0248 32.775 10.1998 33H6.9373ZM12.4498 33C12.0248 33 11.6563 32.844 11.3443 32.532C11.0323 32.22 10.8758 31.851 10.8748 31.425V24.3C10.8748 22.55 11.4938 21.0625 12.7318 19.8375C13.9698 18.6125 15.4633 18 17.2123 18H24.2998C26.0498 18 27.5373 18.6125 28.7623 19.8375C29.9873 21.0625 30.5998 22.55 30.5998 24.3V26.7C30.5998 28.45 29.9873 29.9375 28.7623 31.1625C27.5373 32.3875 26.0498 33 24.2998 33H12.4498ZM17.9998 14.85C16.3498 14.85 14.9498 14.275 13.7998 13.125C12.6498 11.975 12.0748 10.575 12.0748 8.925C12.0748 7.275 12.6498 5.875 13.7998 4.725C14.9498 3.575 16.3498 3 17.9998 3C19.6498 3 21.0498 3.575 22.1998 4.725C23.3498 5.875 23.9248 7.275 23.9248 8.925C23.9248 10.575 23.3498 11.975 22.1998 13.125C21.0498 14.275 19.6498 14.85 17.9998 14.85Z" fill="#3C889D"/>
</svg>
