<svg width="33" height="33" viewBox="0 0 33 33" fill="none" xmlns="http://www.w3.org/2000/svg">
<path fill-rule="evenodd" clip-rule="evenodd" d="M4.64475 6.98775C4.125 7.7275 4.125 9.9275 4.125 14.3234V16.4876C4.125 24.2399 9.95363 28.0033 13.6111 29.5996C14.6025 30.0328 15.0989 30.25 16.5 30.25C17.9025 30.25 18.3975 30.0328 19.3889 29.5996C23.0464 28.0019 28.875 24.2413 28.875 16.4876V14.3234C28.875 9.92612 28.875 7.7275 28.3552 6.98775C27.8369 6.24937 25.7703 5.54125 21.6356 4.12637L20.8477 3.85688C18.6931 3.1185 17.6165 2.75 16.5 2.75C15.3835 2.75 14.3069 3.1185 12.1523 3.85688L11.3644 4.125C7.22975 5.54125 5.16313 6.24937 4.64475 6.98775ZM14.9339 11.4991L14.7551 11.8222C14.5557 12.1784 14.4568 12.3558 14.3028 12.4726C14.1488 12.5895 13.9563 12.6335 13.5712 12.7201L13.222 12.7999C11.869 13.1051 11.1925 13.2591 11.0316 13.7761C10.8707 14.2945 11.3314 14.8335 12.254 15.9115L12.4933 16.1906C12.7545 16.4972 12.8851 16.6499 12.9442 16.8396C13.0034 17.0294 12.9841 17.2343 12.9442 17.6426L12.9085 18.0139C12.7682 19.4535 12.6995 20.1726 13.1202 20.493C13.541 20.8134 14.1749 20.5205 15.4412 19.9389L15.7699 19.7876C16.1287 19.6226 16.3089 19.5387 16.5 19.5387C16.6911 19.5387 16.8713 19.6213 17.2301 19.7863L17.5588 19.9375C18.8238 20.5219 19.459 20.8134 19.8798 20.493C20.3005 20.1726 20.2318 19.4535 20.0915 18.0153L20.0558 17.6426C20.0159 17.2343 19.9966 17.0294 20.0558 16.8396C20.1149 16.6499 20.2455 16.4959 20.5068 16.1906L20.746 15.9115C21.6672 14.8335 22.1292 14.2945 21.9684 13.7761C21.8075 13.2591 21.131 13.1051 19.778 12.7999L19.4288 12.7201C19.0437 12.6335 18.8512 12.5895 18.6972 12.4726C18.5432 12.3558 18.4443 12.1784 18.2463 11.8222L18.0661 11.4991C17.369 10.2492 17.0211 9.625 16.5 9.625C15.9789 9.625 15.631 10.2492 14.9339 11.4991Z" fill="#0CB600"/>
</svg>
