<svg width="24" height="24" viewBox="0 0 24 24" fill="none" xmlns="http://www.w3.org/2000/svg">
<g clip-path="url(#clip0_113_2539)">
<path d="M17.26 8.93831V20.4163C17.279 20.7648 17.2141 21.1128 17.0707 21.4309C16.9273 21.7491 16.7096 22.0282 16.436 22.2448C16.1623 22.4613 15.8406 22.609 15.498 22.6754C15.1553 22.7418 14.8018 22.725 14.467 22.6263L3.793 20.1103C3.01446 19.8954 2.32436 19.4386 1.82234 18.8059C1.32032 18.1732 1.03235 17.3973 1 16.5903V4.15631C1 3.43031 1.277 2.73231 1.775 2.20531V2.19531L14.477 5.37031C15.2558 5.59917 15.9432 6.06654 16.4425 6.70661C16.9417 7.34668 17.2277 8.12721 17.26 8.93831Z" fill="#FFDDA1" stroke="#191919" stroke-linecap="round" stroke-linejoin="round"/>
<path d="M23.0004 4.15614V14.6761C22.9977 15.4363 22.6947 16.1646 22.1572 16.7023C21.6198 17.2399 20.8916 17.5432 20.1314 17.5461H17.2614V8.93814C17.229 8.12704 16.9431 7.34651 16.4439 6.70644C15.9446 6.06637 15.2572 5.59901 14.4784 5.37014L1.77637 2.19514C2.04402 1.90737 2.36831 1.67806 2.72884 1.52163C3.08937 1.3652 3.47836 1.28502 3.87137 1.28614H20.1314C20.5083 1.28614 20.8815 1.36038 21.2297 1.50461C21.5779 1.64884 21.8943 1.86024 22.1608 2.12675C22.4273 2.39325 22.6387 2.70964 22.7829 3.05784C22.9271 3.40605 23.0004 3.77925 23.0004 4.15614Z" fill="#FFBC44" stroke="#191919" stroke-linecap="round" stroke-linejoin="round"/>
<path d="M9.6084 4.15625H19.1734" stroke="#191919" stroke-linecap="round" stroke-linejoin="round"/>
<path d="M12.956 15.6331C13.2072 15.6331 13.4559 15.5836 13.688 15.4875C13.9201 15.3914 14.131 15.2505 14.3087 15.0728C14.4863 14.8952 14.6272 14.6843 14.7234 14.4522C14.8195 14.2201 14.869 13.9713 14.869 13.7201C14.869 13.4689 14.8195 13.2202 14.7234 12.9881C14.6272 12.756 14.4863 12.5451 14.3087 12.3674C14.131 12.1898 13.9201 12.0489 13.688 11.9527C13.4559 11.8566 13.2072 11.8071 12.956 11.8071C12.4486 11.8071 11.962 12.0087 11.6033 12.3674C11.2445 12.7262 11.043 13.2128 11.043 13.7201C11.043 14.2275 11.2445 14.7141 11.6033 15.0728C11.962 15.4316 12.4486 15.6331 12.956 15.6331Z" fill="#FFEF5E"/>
<path d="M12.9559 13.3484C13.3269 13.348 13.69 13.4558 14.0008 13.6584C14.3115 13.861 14.5566 14.1498 14.7059 14.4894C14.834 14.1983 14.8875 13.8799 14.8616 13.563C14.8356 13.2461 14.731 12.9407 14.5573 12.6744C14.3835 12.4081 14.1461 12.1893 13.8665 12.0379C13.5869 11.8864 13.2739 11.8071 12.9559 11.8071C12.638 11.8071 12.325 11.8864 12.0454 12.0379C11.7658 12.1893 11.5284 12.4081 11.3546 12.6744C11.1809 12.9407 11.0763 13.2461 11.0503 13.563C11.0244 13.8799 11.0779 14.1983 11.2059 14.4894C11.3555 14.1499 11.6006 13.8614 11.9113 13.659C12.2221 13.4565 12.5851 13.3489 12.9559 13.3494" fill="#FFF9BF"/>
<path d="M17.26 8.93799H19.174M12.956 15.633C13.2072 15.633 13.4559 15.5835 13.688 15.4874C13.9201 15.3912 14.131 15.2503 14.3087 15.0727C14.4863 14.895 14.6272 14.6842 14.7234 14.4521C14.8195 14.22 14.869 13.9712 14.869 13.72C14.869 13.4688 14.8195 13.22 14.7234 12.9879C14.6272 12.7558 14.4863 12.5449 14.3087 12.3673C14.131 12.1897 13.9201 12.0487 13.688 11.9526C13.4559 11.8565 13.2072 11.807 12.956 11.807C12.4486 11.807 11.962 12.0085 11.6033 12.3673C11.2445 12.7261 11.043 13.2126 11.043 13.72C11.043 14.2273 11.2445 14.7139 11.6033 15.0727C11.962 15.4314 12.4486 15.633 12.956 15.633Z" stroke="#191919" stroke-linecap="round" stroke-linejoin="round"/>
</g>
<defs>
<clipPath id="clip0_113_2539">
<rect width="24" height="24" fill="white"/>
</clipPath>
</defs>
</svg>
