<svg width="61" height="61" viewBox="0 0 61 61" fill="none" xmlns="http://www.w3.org/2000/svg">
<path d="M9.2373 14.6336C16.8229 10.6941 26.4749 7.05948 35.48 4.84442C38.1145 4.1963 40.8366 5.17102 42.2065 7.5119C43.1851 9.18432 44.3797 11.4769 45.6429 14.4735M36.9351 39.5521C37.0558 42.259 39.1426 44.2758 41.8482 44.3839C43.227 44.4398 44.9414 44.4792 47.0204 44.4792C49.0995 44.4792 50.8139 44.4398 52.1927 44.3839C54.8996 44.2758 56.9851 42.259 57.1058 39.5521C57.1541 38.4503 57.1871 37.1325 57.1871 35.5833C57.1871 34.0342 57.1541 32.7163 57.1058 31.6145C56.9851 28.9076 54.8983 26.8908 52.1927 26.7828C50.4694 26.7166 48.745 26.6849 47.0204 26.6875C44.9414 26.6875 43.227 26.7269 41.8482 26.7828C39.1413 26.8908 37.0558 28.9076 36.9351 31.6145C36.8789 32.9367 36.8518 34.26 36.8538 35.5833C36.8538 37.1338 36.8868 38.4503 36.9351 39.5521Z" stroke="black" stroke-width="1.5" stroke-linecap="round" stroke-linejoin="round"/>
<path d="M51.944 26.7726C51.8647 24.6471 51.7406 22.5235 51.5717 20.4032C51.3074 17.1613 48.7898 14.7226 45.5454 14.4976C41.8091 14.2384 36.0446 13.9791 27.9583 13.9791C19.872 13.9791 14.1063 14.2384 10.37 14.4976C7.12683 14.7213 4.60931 17.1613 4.34498 20.4032C4.07175 23.7506 3.8125 28.7373 3.8125 35.5833C3.8125 42.4293 4.07175 47.4147 4.34498 50.7634C4.60931 54.0053 7.12683 56.444 10.3713 56.669C14.1063 56.9282 19.872 57.1875 27.9583 57.1875C36.0446 57.1875 41.8104 56.9282 45.5454 56.669C48.7898 56.4453 51.3074 54.0053 51.5717 50.7634C51.7102 49.0694 51.8449 46.956 51.944 44.394M45.75 34.3125V36.8541" stroke="black" stroke-width="1.5" stroke-linecap="round" stroke-linejoin="round"/>
</svg>
