<svg width="19" height="22" viewBox="0 0 19 22" fill="none" xmlns="http://www.w3.org/2000/svg">
<path d="M10 21.8333L9.72917 18.5833H9.45833C6.89444 18.5833 4.71875 17.6895 2.93125 15.902C1.14375 14.1145 0.25 11.9388 0.25 9.37496C0.25 6.81107 1.14375 4.63538 2.93125 2.84788C4.71875 1.06038 6.89444 0.166626 9.45833 0.166626C10.7403 0.166626 11.9366 0.405681 13.0474 0.883793C14.1582 1.3619 15.1332 2.02093 15.9724 2.86088C16.8116 3.70082 17.4703 4.67582 17.9484 5.78588C18.4265 6.89593 18.6659 8.09229 18.6667 9.37496C18.6667 10.7291 18.4457 12.0291 18.0037 13.275C17.5617 14.5208 16.9564 15.6763 16.188 16.7416C15.4196 17.8069 14.5077 18.7729 13.4526 19.6395C12.3974 20.5062 11.2466 21.2375 10 21.8333ZM12.1667 17.8791C13.4486 16.7958 14.4915 15.5276 15.2953 14.0745C16.0992 12.6213 16.5007 11.0548 16.5 9.37496C16.5 7.4069 15.8182 5.74146 14.4547 4.37863C13.0911 3.01579 11.4257 2.33401 9.45833 2.33329C7.491 2.33257 5.82556 3.01435 4.462 4.37863C3.09844 5.7429 2.41667 7.40835 2.41667 9.37496C2.41667 11.3416 3.09844 13.0074 4.462 14.3724C5.82556 15.7374 7.491 16.4188 9.45833 16.4166H12.1667V17.8791ZM9.43125 15.3062C9.73819 15.3062 10 15.1979 10.2167 14.9812C10.4333 14.7645 10.5417 14.5027 10.5417 14.1958C10.5417 13.8888 10.4333 13.627 10.2167 13.4104C10 13.1937 9.73819 13.0854 9.43125 13.0854C9.12431 13.0854 8.8625 13.1937 8.64583 13.4104C8.42917 13.627 8.32083 13.8888 8.32083 14.1958C8.32083 14.5027 8.42917 14.7645 8.64583 14.9812C8.8625 15.1979 9.12431 15.3062 9.43125 15.3062ZM8.64583 11.8666H10.2708C10.2708 11.325 10.325 10.9458 10.4333 10.7291C10.5417 10.5125 10.8847 10.1152 11.4625 9.53746C11.7875 9.21246 12.0583 8.86038 12.275 8.48121C12.4917 8.10204 12.6 7.69579 12.6 7.26246C12.6 6.34163 12.2887 5.65118 11.6662 5.19113C11.0436 4.73107 10.3077 4.50068 9.45833 4.49996C8.66389 4.49996 7.99583 4.72132 7.45417 5.16404C6.9125 5.60676 6.53333 6.14374 6.31667 6.77496L7.83333 7.37079C7.92361 7.06385 8.09514 6.7616 8.34792 6.46404C8.60069 6.16649 8.97083 6.01735 9.45833 6.01663C9.94583 6.0159 10.3116 6.15132 10.5557 6.42288C10.7999 6.69443 10.9216 6.99235 10.9208 7.31663C10.9208 7.62357 10.8306 7.8991 10.65 8.14321C10.4694 8.38732 10.2528 8.6354 10 8.88746C9.36806 9.42913 8.98455 9.85812 8.8495 10.1745C8.71444 10.4908 8.64655 11.0548 8.64583 11.8666Z" fill="black"/>
</svg>
